<svg width="34" height="34" viewBox="0 0 34 34" fill="none" xmlns="http://www.w3.org/2000/svg">
<path d="M16.9471 6.19788L7.36829 10.3031L16.9471 14.4083L26.5259 10.3031L16.9471 6.19788Z" stroke="white" stroke-width="2.0526" stroke-linejoin="round"/>
<path fill-rule="evenodd" clip-rule="evenodd" d="M11.4427 14.2823L6.96406 16.2017C6.58671 16.3635 6.34204 16.7345 6.34204 17.1451C6.34204 17.5556 6.58671 17.9267 6.96406 18.0884L16.5429 22.1936C16.801 22.3042 17.0933 22.3042 17.3514 22.1936L26.9303 18.0884C27.3076 17.9267 27.5523 17.5556 27.5523 17.1451C27.5523 16.7345 27.3076 16.3635 26.9303 16.2017L22.4516 14.2823L19.8462 15.3989L23.9206 17.1451L16.9472 20.1337L9.9737 17.1451L14.0481 15.3989L11.4427 14.2823ZM16.6636 12.0535C16.8489 12.0002 17.0455 12.0002 17.2307 12.0535L16.9472 12.175L16.6636 12.0535Z" fill="white"/>
<path fill-rule="evenodd" clip-rule="evenodd" d="M11.4426 21.1244L6.96406 23.0438C6.58671 23.2055 6.34204 23.5766 6.34204 23.9871C6.34204 24.3977 6.58671 24.7687 6.96406 24.9304L16.5429 29.0356C16.801 29.1463 17.0933 29.1463 17.3514 29.0356L26.9303 24.9304C27.3076 24.7687 27.5523 24.3977 27.5523 23.9871C27.5523 23.5766 27.3076 23.2055 26.9303 23.0438L22.4517 21.1244L19.8464 22.241L23.9206 23.9871L16.9472 26.9757L9.9737 23.9871L14.048 22.241L11.4426 21.1244ZM16.6635 18.8956C16.8488 18.8423 17.0455 18.8423 17.2309 18.8956L16.9472 19.0172L16.6635 18.8956Z" fill="white"/>
</svg>
