<svg width="20" height="20" viewBox="0 0 20 20" fill="none" xmlns="http://www.w3.org/2000/svg">
<path d="M10.9764 2.5H7.50008C5.92873 2.5 5.14306 2.5 4.6549 2.98816C4.16675 3.47631 4.16675 4.26198 4.16675 5.83333V14.1667C4.16675 15.738 4.16675 16.5237 4.6549 17.0118C5.14306 17.5 5.92873 17.5 7.50008 17.5H12.5001C14.0714 17.5 14.8571 17.5 15.3453 17.0118C15.8334 16.5237 15.8334 15.738 15.8334 14.1667V7.35702C15.8334 7.0164 15.8334 6.84608 15.77 6.69294C15.7065 6.5398 15.5861 6.41937 15.3453 6.17851L12.1549 2.98816C11.914 2.7473 11.7936 2.62687 11.6405 2.56343C11.4873 2.5 11.317 2.5 10.9764 2.5Z" stroke="#1C1B19" stroke-width="2"/>
<path d="M10.8333 2.5V5.83333C10.8333 6.61901 10.8333 7.01184 11.0773 7.25592C11.3214 7.5 11.7142 7.5 12.4999 7.5H15.8333" stroke="#1C1B19" stroke-width="2"/>
</svg>
